<svg width="196" height="130" viewBox="0 0 196 130" fill="none" xmlns="http://www.w3.org/2000/svg">
<path d="M75.3154 40.6731C75.3154 34.0833 76.354 28.256 78.4343 23.187C80.5142 18.1183 83.3576 13.8744 86.9652 10.454C90.5733 7.03212 94.8174 4.43495 99.6975 2.66018C104.579 0.88699 109.863 0 115.55 0C121.237 0 126.522 0.88699 131.402 2.66018C136.282 4.43495 140.549 7.03212 144.198 10.454C147.849 13.8744 150.713 18.1183 152.793 23.187C154.873 28.256 155.913 34.0833 155.913 40.6731C155.913 48.9506 154.385 55.9827 151.328 61.7694C148.687 66.7735 145.218 70.8445 140.925 73.986C140.388 74.3712 139.807 74.7709 139.182 75.181C139.072 75.2511 138.961 75.3212 138.851 75.3909L138.852 75.3913C132.928 79.1244 126.627 79.1295 126.627 79.1295C132.925 79.8975 138.152 79.1795 142.201 76.8293C142.578 76.981 142.968 77.1349 143.371 77.2913C145.111 77.9664 146.936 78.6427 148.845 79.3185C150.755 79.9936 152.73 80.649 154.767 81.2816C156.804 81.9165 158.714 82.4856 160.496 82.9929C160.581 83.4998 160.624 83.9433 160.624 84.3226C160.624 84.7027 160.624 85.0623 160.624 85.4002C160.624 90.2153 159.371 93.7207 156.868 95.9169C154.363 98.1123 151.074 99.2108 147 99.2108C143.095 99.2108 139.063 98.134 134.903 95.9799C130.745 93.8263 126.5 90.7218 122.171 86.6677L116.569 81.4726H115.55C109.778 81.4726 104.43 80.5643 99.5076 78.749C94.5843 76.9321 90.3394 74.2924 86.7744 70.8287C83.2087 67.3655 80.4081 63.0999 78.371 58.032C76.3334 52.9633 75.3154 47.1766 75.3154 40.6731V40.6731ZM98.2335 40.6731C98.2335 48.3598 99.804 54.1047 102.945 57.9048C106.085 61.7052 110.287 63.6068 115.55 63.6068C120.897 63.6068 125.142 61.7052 128.282 57.9048C131.423 54.1047 132.994 48.3598 132.994 40.6731C132.994 33.0711 131.445 27.3694 128.347 23.5674C125.248 19.767 121.025 17.8658 115.677 17.8658C110.415 17.8658 106.192 19.7454 103.009 23.5036C99.8254 27.2627 98.2335 32.986 98.2335 40.6731Z" fill="black"/>
<path d="M74.3962 27.8287C74.1156 27.0449 73.7222 26.2612 73.2152 25.4774C72.7085 24.6928 72.0757 23.9799 71.3161 23.3355C70.5562 22.6916 69.67 22.159 68.6576 21.7392C67.6443 21.3193 66.5191 21.1094 65.2811 21.1094C63.6496 21.1094 62.214 21.5158 60.9768 22.3272C59.7387 23.1394 58.4722 24.525 57.178 26.4849L50.5951 36.48L40.8882 22.202C40.4386 21.9775 39.8054 21.7679 38.9892 21.5714C38.1731 21.3753 37.3716 21.2776 36.584 21.2776C33.9951 21.2776 31.9698 21.8932 30.507 23.1256C29.0429 24.3568 28.3119 25.8693 28.3119 27.6606C28.3119 29.2293 28.7199 30.6291 29.5357 31.8608C30.3518 33.0924 31.4632 34.5765 32.8695 36.3123L41.5631 46.8955L27.8057 66.4655C28.2557 68.538 29.2262 70.1754 30.7179 71.3798C32.2093 72.5839 34.2203 73.1853 36.7522 73.1853C38.3837 73.1853 39.7911 72.78 40.9726 71.9679C42.154 71.1561 43.3643 69.7693 44.602 67.8098L51.4385 57.0584L62.0739 73.0175C62.524 73.0738 62.9455 73.116 63.3401 73.1436C63.7339 73.1715 64.1277 73.1853 64.5223 73.1853C67.729 73.1853 70.0923 72.5413 71.6114 71.2538C73.1308 69.9654 73.8904 68.3699 73.8904 66.4655C73.8904 64.8424 73.5385 63.4284 72.8356 62.2244C72.1315 61.0207 71.1333 59.6067 69.8394 57.9824L60.9768 46.6434L74.3962 27.8287V27.8287Z" fill="black"/>
<path d="M8.14171 117.701H0.329713V119.409H3.28371V126.941H5.17371V119.409H8.14171V117.701ZM13.0552 119.857C12.2712 119.857 11.6132 120.137 11.1512 120.599V116.441H9.26117V126.941H11.1512V122.909C11.1512 122.111 11.6972 121.565 12.4672 121.565C13.2372 121.565 13.7552 122.097 13.7552 122.909V126.941H15.6312V122.643C15.6312 120.977 14.6372 119.857 13.0552 119.857ZM23.9466 123.077C23.9466 121.285 22.6306 119.857 20.6846 119.857C18.6406 119.857 17.0586 121.439 17.0586 123.483C17.0586 125.527 18.6546 127.109 20.8526 127.109C21.9166 127.109 22.8406 126.731 23.6246 126.073L22.8406 124.785C22.2806 125.219 21.6646 125.485 20.9086 125.485C19.9146 125.485 19.1866 124.995 18.9486 124.113H23.8206C23.8766 123.875 23.9466 123.469 23.9466 123.077ZM20.6146 121.383C21.4126 121.383 22.0986 121.901 22.1126 122.783H18.9486C19.1726 121.915 19.8166 121.383 20.6146 121.383ZM34.6399 117.701L32.3439 123.301L30.0339 117.701H27.8919L32.0219 127.109H32.6519L36.7679 117.701H34.6399ZM38.8417 116.315C38.1697 116.315 37.6377 116.819 37.6377 117.491C37.6377 118.149 38.1697 118.653 38.8417 118.653C39.5137 118.653 40.0597 118.149 40.0597 117.491C40.0597 116.819 39.5137 116.315 38.8417 116.315ZM39.7937 120.011H37.9037V126.941H39.7937V120.011ZM46.7035 116.441V120.683C46.2275 120.151 45.4995 119.857 44.6315 119.857C42.6715 119.857 41.2715 121.397 41.2715 123.483C41.2715 125.569 42.6715 127.109 44.6315 127.109C45.5975 127.109 46.3815 126.731 46.8575 126.073V126.941H48.5935V116.441H46.7035ZM44.9815 125.387C43.9875 125.387 43.1895 124.645 43.1895 123.469C43.1895 122.293 44.0015 121.565 44.9815 121.565C45.8495 121.565 46.7315 122.167 46.7315 123.483C46.7315 124.813 45.8495 125.387 44.9815 125.387ZM56.9642 123.077C56.9642 121.285 55.6482 119.857 53.7022 119.857C51.6582 119.857 50.0762 121.439 50.0762 123.483C50.0762 125.527 51.6722 127.109 53.8702 127.109C54.9342 127.109 55.8582 126.731 56.6422 126.073L55.8582 124.785C55.2982 125.219 54.6822 125.485 53.9262 125.485C52.9322 125.485 52.2042 124.995 51.9662 124.113H56.8382C56.8942 123.875 56.9642 123.469 56.9642 123.077ZM53.6322 121.383C54.4302 121.383 55.1162 121.901 55.1302 122.783H51.9662C52.1902 121.915 52.8342 121.383 53.6322 121.383ZM61.7569 119.857C59.6849 119.857 58.0469 121.425 58.0469 123.469C58.0469 125.527 59.6849 127.095 61.7429 127.095C63.8009 127.095 65.4809 125.527 65.4809 123.469C65.4809 121.425 63.8009 119.857 61.7569 119.857ZM61.7569 121.579C62.7789 121.579 63.5489 122.391 63.5489 123.483C63.5489 124.561 62.7789 125.359 61.7569 125.359C60.7069 125.359 59.9649 124.575 59.9649 123.483C59.9649 122.391 60.7069 121.579 61.7569 121.579ZM75.4023 117.533C72.6443 117.533 70.4743 119.605 70.4743 122.321C70.4743 125.037 72.6443 127.109 75.3883 127.109C77.1803 127.109 78.6783 126.227 79.4763 124.813L78.0483 123.805C77.4323 124.785 76.5643 125.359 75.4023 125.359C73.6803 125.359 72.4203 124.113 72.4203 122.335C72.4203 120.543 73.6803 119.283 75.4023 119.283C76.5643 119.283 77.4323 119.857 78.0483 120.837L79.4763 119.829C78.6643 118.415 77.1803 117.533 75.4023 117.533ZM84.5965 119.927C83.8405 119.927 83.1545 120.249 82.6925 120.851V120.011H80.9565V126.941H82.8465V123.483C82.8465 122.237 83.6165 121.677 84.7085 121.677H85.2125V120.011C85.0305 119.955 84.8485 119.927 84.5965 119.927ZM92.7435 123.077C92.7435 121.285 91.4275 119.857 89.4815 119.857C87.4375 119.857 85.8555 121.439 85.8555 123.483C85.8555 125.527 87.4515 127.109 89.6495 127.109C90.7135 127.109 91.6375 126.731 92.4215 126.073L91.6375 124.785C91.0775 125.219 90.4615 125.485 89.7055 125.485C88.7115 125.485 87.9835 124.995 87.7455 124.113H92.6175C92.6735 123.875 92.7435 123.469 92.7435 123.077ZM89.4115 121.383C90.2095 121.383 90.8955 121.901 90.9095 122.783H87.7455C87.9695 121.915 88.6135 121.383 89.4115 121.383ZM97.0602 119.857C95.8422 119.857 94.8482 120.319 94.0362 121.285L95.0162 122.447C95.5902 121.845 96.1082 121.495 96.8502 121.495C97.7042 121.495 98.1382 121.957 98.1382 122.713V123.021H96.4022C94.8062 123.021 93.7842 123.777 93.7842 125.037C93.7842 126.213 94.6662 127.109 96.1782 127.109C97.0742 127.109 97.8022 126.787 98.2922 126.269V126.941H100.028V122.825C100.028 120.851 98.8242 119.857 97.0602 119.857ZM96.6822 125.723C96.0942 125.723 95.6882 125.443 95.6882 124.967C95.6882 124.505 96.0382 124.267 96.6542 124.267H98.1382V124.351C98.1382 125.163 97.4802 125.723 96.6822 125.723ZM105.403 125.415C104.535 125.415 104.115 125.135 104.115 124.337V121.607H106.075V120.011H104.115V118.261H102.225V120.011H101.133V121.607H102.225V124.505C102.225 126.283 103.289 127.109 104.997 127.109C105.487 127.109 105.907 127.039 106.299 126.941V125.359C105.935 125.387 105.627 125.415 105.403 125.415ZM110.853 119.857C108.781 119.857 107.143 121.425 107.143 123.469C107.143 125.527 108.781 127.095 110.839 127.095C112.897 127.095 114.577 125.527 114.577 123.469C114.577 121.425 112.897 119.857 110.853 119.857ZM110.853 121.579C111.875 121.579 112.645 122.391 112.645 123.483C112.645 124.561 111.875 125.359 110.853 125.359C109.803 125.359 109.061 124.575 109.061 123.483C109.061 122.391 109.803 121.579 110.853 121.579ZM119.692 119.927C118.936 119.927 118.25 120.249 117.788 120.851V120.011H116.052V126.941H117.942V123.483C117.942 122.237 118.712 121.677 119.804 121.677H120.308V120.011C120.126 119.955 119.944 119.927 119.692 119.927ZM123.832 119.843C122.362 119.843 121.284 120.599 121.284 121.929C121.284 123.021 121.998 123.567 123.174 124.043L123.916 124.351C124.336 124.533 124.63 124.659 124.63 124.981C124.63 125.373 124.224 125.555 123.748 125.555C123.006 125.555 122.362 125.191 121.802 124.617L120.85 125.765C121.466 126.577 122.488 127.109 123.72 127.109C125.232 127.109 126.422 126.325 126.422 124.897C126.422 123.819 125.722 123.287 124.476 122.783L123.804 122.503C123.3 122.307 123.076 122.167 123.076 121.887C123.076 121.551 123.37 121.397 123.818 121.397C124.378 121.397 124.924 121.635 125.372 122.055L126.324 120.893C125.694 120.193 124.84 119.843 123.832 119.843ZM130.164 117.701H128.008L127.938 121.593H129.38L130.164 117.701ZM141.242 126.941H143.272L139.156 117.533H138.526L134.396 126.941H136.426L136.944 125.737H140.724L141.242 126.941ZM140.052 124.183H137.616L138.834 121.075L140.052 124.183ZM147.589 119.857C145.517 119.857 143.879 121.425 143.879 123.469C143.879 125.527 145.517 127.109 147.589 127.109C148.961 127.109 150.025 126.423 150.599 125.387L149.283 124.379C148.877 124.953 148.373 125.373 147.617 125.373C146.539 125.373 145.797 124.561 145.797 123.469C145.797 122.391 146.539 121.579 147.617 121.579C148.387 121.579 148.891 121.999 149.283 122.587L150.599 121.565C150.025 120.529 148.975 119.857 147.589 119.857ZM154.838 119.857C153.62 119.857 152.626 120.319 151.814 121.285L152.794 122.447C153.368 121.845 153.886 121.495 154.628 121.495C155.482 121.495 155.916 121.957 155.916 122.713V123.021H154.18C152.584 123.021 151.562 123.777 151.562 125.037C151.562 126.213 152.444 127.109 153.956 127.109C154.852 127.109 155.58 126.787 156.07 126.269V126.941H157.806V122.825C157.806 120.851 156.602 119.857 154.838 119.857ZM154.46 125.723C153.872 125.723 153.466 125.443 153.466 124.967C153.466 124.505 153.816 124.267 154.432 124.267H155.916V124.351C155.916 125.163 155.258 125.723 154.46 125.723ZM164.664 116.441V120.683C164.188 120.151 163.46 119.857 162.592 119.857C160.632 119.857 159.232 121.397 159.232 123.483C159.232 125.569 160.632 127.109 162.592 127.109C163.558 127.109 164.342 126.731 164.818 126.073V126.941H166.554V116.441H164.664ZM162.942 125.387C161.948 125.387 161.15 124.645 161.15 123.469C161.15 122.293 161.962 121.565 162.942 121.565C163.81 121.565 164.692 122.167 164.692 123.483C164.692 124.813 163.81 125.387 162.942 125.387ZM174.925 123.077C174.925 121.285 173.609 119.857 171.663 119.857C169.619 119.857 168.037 121.439 168.037 123.483C168.037 125.527 169.633 127.109 171.831 127.109C172.895 127.109 173.819 126.731 174.603 126.073L173.819 124.785C173.259 125.219 172.643 125.485 171.887 125.485C170.893 125.485 170.165 124.995 169.927 124.113H174.799C174.855 123.875 174.925 123.469 174.925 123.077ZM171.593 121.383C172.391 121.383 173.077 121.901 173.091 122.783H169.927C170.151 121.915 170.795 121.383 171.593 121.383ZM184.464 119.857C183.498 119.857 182.672 120.249 182.154 120.851C181.734 120.221 181.034 119.857 180.096 119.857C179.27 119.857 178.598 120.151 178.136 120.627V120.011H176.4V126.941H178.29V122.909C178.29 122.083 178.808 121.565 179.564 121.565C180.306 121.565 180.796 122.083 180.796 122.909V126.941H182.686V122.867C182.686 122.097 183.204 121.565 183.96 121.565C184.702 121.565 185.192 122.083 185.192 122.909V126.941H187.082V122.643C187.082 120.977 186.116 119.857 184.464 119.857ZM193.614 120.011L191.808 124.561L190.114 120.011H188.112L190.772 126.535L190.562 126.997C190.212 127.781 189.722 127.935 189.12 127.935C188.896 127.935 188.63 127.907 188.308 127.879V129.461C188.672 129.559 189.134 129.629 189.526 129.629C190.828 129.629 191.654 128.971 192.284 127.543L195.602 120.011H193.614Z" fill="black"/>
</svg>
