<svg width="110" height="60" viewBox="0 0 110 60" fill="none" xmlns="http://www.w3.org/2000/svg">
<g clip-path="url(#clip0_1127_16949)">
<path d="M85.496 38.0402C85.409 42.5363 83.1721 46.032 79.6565 48.0316C78.2458 48.9291 76.5726 49.5747 74.6869 49.9518C68.5117 51.187 63.967 52.0349 49.6592 53.0387C47.0056 53.2249 44.6842 53.375 42.6226 53.4922C34.5063 54.0791 30.4127 54.0951 25.5135 53.8943C19.5014 53.6481 14.9526 50.2369 13.8922 44.2867C12.4747 36.3178 11.1638 31.1498 11.31 21.372C11.4018 15.3311 15.3454 11.2518 21.2422 10.0683C26.3896 9.03519 30.6638 8.39234 39.9963 7.64082C41.9646 7.44493 44.1699 7.24093 46.6731 7.0226C60.9613 5.77603 65.5847 5.90241 71.88 6.15617C78.0245 6.40387 82.4664 9.69729 83.5012 15.7629C83.634 16.5406 84.1246 18.4867 84.5966 21.4401L83.6642 22.1439L79.124 24.8677L76.3276 25.1361C76.2033 24.7666 75.8353 24.5112 75.425 24.5414C74.9416 24.577 74.5754 24.9966 74.6115 25.4738L74.9325 29.7219C74.9686 30.1992 75.3936 30.5604 75.8772 30.5248C76.3439 30.4906 76.7011 30.0985 76.6929 29.6421L80.243 29.3012L85.5611 31.8235C85.6553 35.0829 85.5122 37.209 85.496 38.0402ZM87.2851 31.3894C83.6583 29.9669 80.4143 28.7014 80.4143 28.7014L76.388 29.117C76.388 29.117 76.3613 29.8317 75.9732 29.9485C75.585 30.0654 75.4402 29.8123 75.3744 29.5265C75.3088 29.2408 75.2758 27.5199 75.2758 27.5199L80.3745 27.1953C80.3745 27.1953 83.6171 28.5239 87.1802 29.9746L87.2851 31.3894ZM94.301 16.016C95.7468 15.3227 97.0884 14.311 97.4576 18.6484L98.659 32.7477C98.9652 36.344 97.5036 36.4015 95.9921 35.8639L89.3579 33.5044C88.7982 33.3052 88.2387 33.1093 87.7492 32.8614L87.6369 31.5274C91.7619 33.1457 96.2584 34.9194 96.9937 35.2471C97.5857 35.5457 97.8486 34.9876 97.8881 34.6238C97.9276 34.2602 96.9345 33.796 96.3294 33.6401C96.011 33.5581 91.6149 31.78 87.518 30.1123L86.6576 19.8846C88.6042 18.4815 92.8623 16.7058 94.301 16.016ZM86.4066 20.0739C86.4847 20.0122 86.5676 19.9494 86.6557 19.886L86.4066 20.0739Z" fill="#793EF0"/>
<path d="M45.2476 15.4979C45.1502 14.4095 45.237 13.4318 45.5085 12.5642C45.7798 11.6968 46.1906 10.9546 46.7407 10.3372C47.291 9.71963 47.9594 9.22897 48.7458 8.86502C49.5325 8.50107 50.3993 8.27784 51.3464 8.19517C52.2935 8.11266 53.1867 8.18234 54.0257 8.40439C54.8645 8.62661 55.6136 8.99359 56.272 9.50568C56.9305 10.0176 57.4701 10.677 57.8915 11.484C58.3129 12.2911 58.5723 13.2385 58.6697 14.3269C58.7921 15.6942 58.6417 16.878 58.2182 17.8782C57.8524 18.7431 57.3349 19.4659 56.6665 20.047C56.5827 20.1186 56.492 20.193 56.394 20.2697C56.3766 20.2831 56.3591 20.2962 56.3419 20.3092L56.3421 20.3094C55.4107 21.012 54.3616 21.1044 54.3616 21.1044C55.4217 21.1397 56.2815 20.9452 56.9211 20.4982C56.9862 20.5178 57.0532 20.5375 57.1228 20.5576C57.4224 20.6438 57.7363 20.729 58.0644 20.8129C58.3924 20.8966 58.7309 20.9762 59.0795 21.0511C59.428 21.1264 59.7547 21.1925 60.059 21.2504C60.0805 21.3331 60.0944 21.4056 60.0999 21.4682C60.1055 21.531 60.1108 21.5904 60.1159 21.6462C60.187 22.4416 60.0303 23.0388 59.6458 23.438C59.2612 23.8368 58.7297 24.0661 58.0514 24.1254C57.4011 24.1821 56.7137 24.0628 55.989 23.7675C55.2647 23.472 54.5119 23.021 53.731 22.4143L52.7212 21.6375L52.5514 21.6523C51.5902 21.7362 50.6862 21.6638 49.8397 21.4355C48.9929 21.207 48.2469 20.8326 47.6019 20.3123C46.9569 19.7921 46.4275 19.1281 46.0133 18.3208C45.5989 17.5131 45.3439 16.572 45.2476 15.4979ZM49.0642 15.1648C49.1779 16.4345 49.5244 17.3607 50.1038 17.9426C50.6829 18.5249 51.4107 18.7778 52.2873 18.7014C53.1776 18.6238 53.8564 18.248 54.3231 17.5746C54.7902 16.9012 54.9668 15.9295 54.8531 14.6598C54.7406 13.4043 54.3982 12.4851 53.826 11.9021C53.2539 11.3193 52.5224 11.0666 51.6319 11.1444C50.7556 11.2208 50.08 11.5925 49.6056 12.2597C49.1309 12.9268 48.9506 13.8952 49.0642 15.1648Z" fill="#FFF573"/>
<path d="M44.9058 13.3894C44.8475 13.264 44.7704 13.1401 44.6743 13.0182C44.5784 12.896 44.4625 12.7873 44.3264 12.692C44.1904 12.5967 44.0348 12.5216 43.8601 12.4669C43.6852 12.4123 43.4946 12.394 43.2884 12.4119C43.0168 12.4357 42.7838 12.5236 42.5898 12.6756C42.3956 12.8278 42.2051 13.075 42.0184 13.4175L41.07 15.1642L39.2424 12.9468C39.1643 12.9162 39.0557 12.8908 38.9169 12.8702C38.7781 12.8498 38.6431 12.8452 38.5119 12.8567C38.0808 12.8943 37.7526 13.0254 37.5273 13.2502C37.3016 13.4747 37.2023 13.7353 37.2288 14.031C37.252 14.2902 37.3406 14.5155 37.4948 14.7071C37.6488 14.8986 37.8558 15.1276 38.1159 15.394L39.72 17.0157L37.7184 20.4481C37.824 20.7837 38.0099 21.0402 38.2762 21.2175C38.5424 21.3947 38.8861 21.4647 39.3077 21.4279C39.5795 21.4043 39.8077 21.3169 39.9925 21.1656C40.1773 21.0144 40.3584 20.7677 40.5355 20.426L41.515 18.5509L43.5221 21.0324C43.5978 21.0351 43.6688 21.036 43.735 21.0348C43.8008 21.0338 43.8666 21.0302 43.9324 21.0245C44.4664 20.9779 44.8504 20.8372 45.0844 20.6025C45.3185 20.3676 45.4212 20.0931 45.3932 19.7784C45.3691 19.5105 45.2896 19.2819 45.1547 19.0932C45.0196 18.9048 44.8324 18.6858 44.5929 18.4362L42.9493 16.6921L44.9058 13.3894Z" fill="#FFF573"/>
<path fill-rule="evenodd" clip-rule="evenodd" d="M90.3739 29.0522C90.6936 29.0522 90.9529 29.308 90.9529 29.6237C90.9529 29.9393 90.6936 30.195 90.3739 30.195C90.0543 30.195 89.7949 29.9393 89.7949 29.6237C89.7949 29.308 90.0543 29.0522 90.3739 29.0522Z" fill="#FFF573"/>
<path fill-rule="evenodd" clip-rule="evenodd" d="M92.8626 25.4678C93.5093 25.4678 94.0336 25.9853 94.0336 26.6236C94.0336 27.2619 93.5093 27.7795 92.8626 27.7795C92.2157 27.7795 91.6914 27.2619 91.6914 26.6236C91.6914 25.9853 92.2157 25.4678 92.8626 25.4678Z" fill="#FFF573"/>
<path fill-rule="evenodd" clip-rule="evenodd" d="M93.6902 29.6235C94.068 29.6235 94.3743 29.9259 94.3743 30.2988C94.3743 30.6718 94.068 30.9742 93.6902 30.9742C93.3122 30.9742 93.0059 30.6718 93.0059 30.2988C93.0059 29.9259 93.3122 29.6235 93.6902 29.6235Z" fill="#FFF573"/>
<path fill-rule="evenodd" clip-rule="evenodd" d="M95.9141 28.0391C96.2992 28.0391 96.6116 28.3473 96.6116 28.7275C96.6116 29.1076 96.2992 29.4159 95.9141 29.4159C95.529 29.4159 95.2168 29.1076 95.2168 28.7275C95.2168 28.3473 95.529 28.0391 95.9141 28.0391Z" fill="#FFF573"/>
<path d="M66.9003 41.7448C67.0743 43.1945 66.2149 44.121 65.142 44.2466C64.0859 44.3701 63.0329 43.6839 62.8589 42.2341C62.6847 40.7842 63.5461 39.8741 64.6024 39.7506C65.6751 39.6251 66.7262 40.2951 66.9003 41.7448ZM62.484 38.9741L61.9735 34.7227L59.7141 34.9869C59.55 35.1355 59.3761 35.2744 59.1934 35.4025L60.5987 47.107L63.4209 46.777L63.2683 45.5065C63.8758 46.2446 64.9219 46.7336 66.2751 46.5752C68.5362 46.3108 70.1162 44.2759 69.7719 41.409C69.4277 38.542 67.4302 36.9587 65.1527 37.2249C63.8322 37.3795 62.8978 38.0999 62.484 38.9741Z" fill="#FFF573"/>
<path d="M41.293 38.7919L42.5811 49.3608L50.1052 48.4551C49.357 47.9538 48.7735 47.2719 48.352 46.4894L45.1451 46.8805L44.1152 38.4619L41.293 38.7919Z" fill="#FFF573"/>
<path d="M64.478 29.6265C64.2825 27.9978 65.1299 27.1336 66.2068 27.0075C67.2493 26.8857 68.3126 27.5264 68.5082 29.1553C68.7017 30.767 67.8042 31.6543 66.7445 31.7783C65.6675 31.9042 64.6715 31.2382 64.478 29.6265ZM71.5307 28.8018C71.1664 25.7669 68.7512 24.1368 65.9022 24.47C63.0708 24.8012 61.091 26.9454 61.4553 29.9802C61.8196 33.015 64.2001 34.6491 67.0491 34.316C69.898 33.9828 71.8952 31.8365 71.5307 28.8018Z" fill="#FFF573"/>
<path d="M60.5571 31.8414L57.3954 32.2113C57.214 32.7541 56.7943 33.2204 55.9605 33.3179C55.005 33.4296 54.1533 32.9381 53.8988 31.6988L60.6217 30.9124C60.6214 30.6168 60.6038 30.3233 60.5708 30.049C60.2209 27.1342 58.0009 25.5161 55.1693 25.8473C52.2857 26.1846 50.4969 28.3064 50.8614 31.3411C51.2257 34.376 53.5019 36.0223 56.3509 35.6891C58.7656 35.4066 60.3123 33.7652 60.5571 31.8414ZM55.4165 28.2004C56.4068 28.0845 57.3127 28.5871 57.4381 29.6331L53.7207 30.0679C53.7668 28.9845 54.4438 28.3141 55.4165 28.2004Z" fill="#FFF573"/>
<path d="M46.9262 31.8708C47.1095 33.3968 46.22 34.3528 45.0909 34.4849C43.9792 34.615 42.8686 33.8755 42.6855 32.3495C42.5022 30.8235 43.411 29.8827 44.5228 29.7526C45.6518 29.6207 46.743 30.3448 46.9262 31.8708ZM39.6628 32.703C40.025 35.7207 42.1492 37.4196 44.529 37.1412C45.9535 36.9747 46.9023 36.2203 47.3358 35.2829L47.5004 36.6546L50.471 36.3072L48.9477 23.6191L45.9773 23.9666L46.5103 28.4075C45.8147 27.602 44.6329 27.1491 43.3474 27.2995C40.9674 27.5779 39.3005 29.6853 39.6628 32.703Z" fill="#FFF573"/>
<path d="M35.9321 27.2976C36.9744 27.1756 37.6023 26.3893 37.4971 25.515C37.3901 24.6234 36.5935 24.0037 35.5512 24.1257C34.4915 24.2495 33.8638 25.0358 33.9708 25.9274C34.0758 26.8019 34.8724 27.4215 35.9321 27.2976Z" fill="#FFF573"/>
<path d="M35.7052 38.0345L38.6758 37.6871L37.5272 28.1196L34.5566 28.467L35.7052 38.0345Z" fill="#FFF573"/>
<path d="M27.9335 35.9527L23.8199 27.2189L20.6582 27.5888L26.4288 39.1192L30.1462 38.6846L33.0267 26.1421L29.8825 26.5099L27.9335 35.9527Z" fill="#FFF573"/>
<path fill-rule="evenodd" clip-rule="evenodd" d="M72.3746 23.7949C72.7811 23.7949 73.1105 24.1201 73.1105 24.5213C73.1105 24.9224 72.7811 25.2477 72.3746 25.2477C71.9681 25.2477 71.6387 24.9224 71.6387 24.5213C71.6387 24.1201 71.9681 23.7949 72.3746 23.7949Z" fill="#FFF573"/>
<path fill-rule="evenodd" clip-rule="evenodd" d="M71.9449 34.5796C72.3597 34.5796 72.6962 34.9117 72.6962 35.3213C72.6962 35.7308 72.3597 36.0629 71.9449 36.0629C71.5298 36.0629 71.1934 35.7308 71.1934 35.3213C71.1934 34.9117 71.5298 34.5796 71.9449 34.5796Z" fill="#FFF573"/>
<path fill-rule="evenodd" clip-rule="evenodd" d="M65.2612 19.4941C66.2652 19.4941 67.0791 20.3191 67.0791 21.3363C67.0791 22.3538 66.2652 23.1785 65.2612 23.1785C64.2572 23.1785 63.4434 22.3538 63.4434 21.3363C63.4434 20.3191 64.2572 19.4941 65.2612 19.4941Z" fill="#FFF573"/>
<path fill-rule="evenodd" clip-rule="evenodd" d="M71.2655 38.7466C71.5869 38.7466 71.8472 39.0037 71.8472 39.3209C71.8472 39.638 71.5869 39.8951 71.2655 39.8951C70.9441 39.8951 70.6836 39.638 70.6836 39.3209C70.6836 39.0037 70.9441 38.7466 71.2655 38.7466Z" fill="#FFF573"/>
<path d="M55.7016 43.0622C55.8757 44.5121 55.0307 45.4204 53.958 45.5458C52.9017 45.6693 51.8466 44.9669 51.6725 43.517C51.4985 42.0673 52.362 41.1733 53.4181 41.0498C54.491 40.9243 55.5275 41.6125 55.7016 43.0622ZM48.8009 43.8529C49.1451 46.7198 51.1631 48.334 53.4077 48.0715C54.7775 47.9112 55.6769 47.1782 56.0928 46.3202L56.2472 47.6071L59.0693 47.2771L57.9782 38.1875L55.156 38.5175L55.3105 39.8044C54.7194 39.064 53.6715 38.559 52.3016 38.7192C50.0405 38.9836 48.4567 40.9859 48.8009 43.8529Z" fill="#FFF573"/>
</g>
<defs>
<clipPath id="clip0_1127_16949">
<rect width="110" height="60" fill="white"/>
</clipPath>
</defs>
</svg>
