<svg width="196" height="130" viewBox="0 0 196 130" fill="none" xmlns="http://www.w3.org/2000/svg">
<path d="M75.355 40.6942C75.355 34.101 76.3941 28.2707 78.4755 23.199C80.5564 18.1277 83.4013 13.8816 87.0108 10.4595C90.6208 7.03577 94.8671 4.43725 99.7498 2.66156C104.634 0.887451 109.921 0 115.611 0C121.3 0 126.588 0.887451 131.471 2.66156C136.354 4.43725 140.622 7.03577 144.274 10.4595C147.926 13.8816 150.792 18.1277 152.873 23.199C154.954 28.2707 155.994 34.101 155.994 40.6942C155.994 48.976 154.465 56.0118 151.407 61.8015C148.764 66.8082 145.294 70.8813 140.999 74.0244C140.461 74.4098 139.88 74.8098 139.255 75.22C139.144 75.2901 139.034 75.3603 138.923 75.43L138.924 75.4304C132.997 79.1654 126.693 79.1706 126.693 79.1706C132.995 79.939 138.224 79.2206 142.275 76.8692C142.653 77.0209 143.042 77.175 143.446 77.3314C145.187 78.0069 147.013 78.6835 148.923 79.3597C150.834 80.0352 152.809 80.6909 154.848 81.3238C156.885 81.959 158.797 82.5285 160.58 83.036C160.665 83.5432 160.708 83.9869 160.708 84.3664C160.708 84.7467 160.708 85.1065 160.708 85.4446C160.708 90.2621 159.454 93.7693 156.95 95.9667C154.444 98.1632 151.153 99.2623 147.077 99.2623C143.17 99.2623 139.136 98.1849 134.974 96.0298C130.813 93.875 126.566 90.7689 122.235 86.7127L116.63 81.5149H115.611C109.835 81.5149 104.485 80.6062 99.5597 78.7899C94.6338 76.972 90.3867 74.331 86.82 70.8655C83.2524 67.4004 80.4503 63.1327 78.4121 58.0621C76.3735 52.9908 75.355 47.2011 75.355 40.6942ZM98.2849 40.6942C98.2849 48.3849 99.8563 54.1328 102.999 57.9348C106.14 61.7372 110.344 63.6398 115.611 63.6398C120.96 63.6398 125.207 61.7372 128.349 57.9348C131.492 54.1328 133.064 48.3849 133.064 40.6942C133.064 33.0882 131.513 27.3837 128.414 23.5797C125.313 19.7773 121.088 17.8751 115.738 17.8751C110.473 17.8751 106.248 19.7556 103.063 23.5158C99.8777 27.2769 98.2849 33.0031 98.2849 40.6942Z" fill="white"/>
<path d="M74.435 27.8427C74.1543 27.0585 73.7607 26.2743 73.2534 25.4901C72.7465 24.7052 72.1133 23.9919 71.3534 23.3472C70.593 22.7029 69.7064 22.1701 68.6934 21.75C67.6797 21.3299 66.5539 21.1199 65.3152 21.1199C63.6828 21.1199 62.2466 21.5266 61.0087 22.3383C59.77 23.1509 58.5028 24.5373 57.2079 26.4982L50.6216 36.4985L40.9097 22.213C40.4598 21.9884 39.8262 21.7788 39.0097 21.5821C38.1931 21.3859 37.3912 21.2882 36.6032 21.2882C34.013 21.2882 31.9866 21.9041 30.523 23.1371C29.0582 24.369 28.3268 25.8822 28.3268 27.6745C28.3268 29.2441 28.7351 30.6446 29.5512 31.8768C30.3678 33.1091 31.4797 34.594 32.8867 36.3307L41.5849 46.9194L27.8203 66.4996C28.2706 68.5732 29.2415 70.2113 30.7341 71.4164C32.2262 72.6211 34.2383 73.2228 36.7715 73.2228C38.4038 73.2228 39.812 72.8173 40.994 72.0048C42.1761 71.1926 43.3871 69.8051 44.6254 67.8446L51.4655 57.0876L62.1064 73.055C62.5566 73.1113 62.9784 73.1535 63.3732 73.1811C63.7672 73.2091 64.1612 73.2228 64.556 73.2228C67.7644 73.2228 70.1289 72.5785 71.6488 71.2903C73.169 70.0013 73.929 68.4049 73.929 66.4996C73.929 64.8756 73.5769 63.4609 72.8736 62.2562C72.1691 61.0519 71.1704 59.6372 69.8759 58.0121L61.0087 46.6671L74.435 27.8427Z" fill="white"/>
<path d="M8.19257 117.76H0.38057V119.468H3.33457V127H5.22457V119.468H8.19257V117.76ZM13.106 119.916C12.322 119.916 11.664 120.196 11.202 120.658V116.5H9.31202V127H11.202V122.968C11.202 122.17 11.748 121.624 12.518 121.624C13.288 121.624 13.806 122.156 13.806 122.968V127H15.682V122.702C15.682 121.036 14.688 119.916 13.106 119.916ZM23.9975 123.136C23.9975 121.344 22.6815 119.916 20.7355 119.916C18.6915 119.916 17.1095 121.498 17.1095 123.542C17.1095 125.586 18.7055 127.168 20.9035 127.168C21.9675 127.168 22.8915 126.79 23.6755 126.132L22.8915 124.844C22.3315 125.278 21.7155 125.544 20.9595 125.544C19.9655 125.544 19.2375 125.054 18.9995 124.172H23.8715C23.9275 123.934 23.9975 123.528 23.9975 123.136ZM20.6655 121.442C21.4635 121.442 22.1495 121.96 22.1635 122.842H18.9995C19.2235 121.974 19.8675 121.442 20.6655 121.442ZM34.6907 117.76L32.3947 123.36L30.0847 117.76H27.9427L32.0727 127.168H32.7027L36.8187 117.76H34.6907ZM38.8926 116.374C38.2206 116.374 37.6886 116.878 37.6886 117.55C37.6886 118.208 38.2206 118.712 38.8926 118.712C39.5646 118.712 40.1106 118.208 40.1106 117.55C40.1106 116.878 39.5646 116.374 38.8926 116.374ZM39.8446 120.07H37.9546V127H39.8446V120.07ZM46.7544 116.5V120.742C46.2784 120.21 45.5504 119.916 44.6824 119.916C42.7224 119.916 41.3224 121.456 41.3224 123.542C41.3224 125.628 42.7224 127.168 44.6824 127.168C45.6484 127.168 46.4324 126.79 46.9084 126.132V127H48.6444V116.5H46.7544ZM45.0324 125.446C44.0384 125.446 43.2404 124.704 43.2404 123.528C43.2404 122.352 44.0524 121.624 45.0324 121.624C45.9004 121.624 46.7824 122.226 46.7824 123.542C46.7824 124.872 45.9004 125.446 45.0324 125.446ZM57.0151 123.136C57.0151 121.344 55.6991 119.916 53.7531 119.916C51.7091 119.916 50.1271 121.498 50.1271 123.542C50.1271 125.586 51.7231 127.168 53.9211 127.168C54.9851 127.168 55.9091 126.79 56.6931 126.132L55.9091 124.844C55.3491 125.278 54.7331 125.544 53.9771 125.544C52.9831 125.544 52.2551 125.054 52.0171 124.172H56.8891C56.9451 123.934 57.0151 123.528 57.0151 123.136ZM53.6831 121.442C54.4811 121.442 55.1671 121.96 55.1811 122.842H52.0171C52.2411 121.974 52.8851 121.442 53.6831 121.442ZM61.8078 119.916C59.7358 119.916 58.0978 121.484 58.0978 123.528C58.0978 125.586 59.7358 127.154 61.7938 127.154C63.8518 127.154 65.5318 125.586 65.5318 123.528C65.5318 121.484 63.8518 119.916 61.8078 119.916ZM61.8078 121.638C62.8298 121.638 63.5998 122.45 63.5998 123.542C63.5998 124.62 62.8298 125.418 61.8078 125.418C60.7578 125.418 60.0158 124.634 60.0158 123.542C60.0158 122.45 60.7578 121.638 61.8078 121.638ZM75.4532 117.592C72.6952 117.592 70.5252 119.664 70.5252 122.38C70.5252 125.096 72.6952 127.168 75.4392 127.168C77.2312 127.168 78.7292 126.286 79.5272 124.872L78.0992 123.864C77.4832 124.844 76.6152 125.418 75.4532 125.418C73.7312 125.418 72.4712 124.172 72.4712 122.394C72.4712 120.602 73.7312 119.342 75.4532 119.342C76.6152 119.342 77.4832 119.916 78.0992 120.896L79.5272 119.888C78.7152 118.474 77.2312 117.592 75.4532 117.592ZM84.6473 119.986C83.8913 119.986 83.2053 120.308 82.7433 120.91V120.07H81.0073V127H82.8973V123.542C82.8973 122.296 83.6673 121.736 84.7593 121.736H85.2633V120.07C85.0813 120.014 84.8993 119.986 84.6473 119.986ZM92.7944 123.136C92.7944 121.344 91.4784 119.916 89.5324 119.916C87.4884 119.916 85.9064 121.498 85.9064 123.542C85.9064 125.586 87.5024 127.168 89.7004 127.168C90.7644 127.168 91.6884 126.79 92.4724 126.132L91.6884 124.844C91.1284 125.278 90.5124 125.544 89.7564 125.544C88.7624 125.544 88.0344 125.054 87.7964 124.172H92.6684C92.7244 123.934 92.7944 123.528 92.7944 123.136ZM89.4624 121.442C90.2604 121.442 90.9464 121.96 90.9604 122.842H87.7964C88.0204 121.974 88.6644 121.442 89.4624 121.442ZM97.1111 119.916C95.8931 119.916 94.8991 120.378 94.0871 121.344L95.0671 122.506C95.6411 121.904 96.1591 121.554 96.9011 121.554C97.7551 121.554 98.1891 122.016 98.1891 122.772V123.08H96.4531C94.8571 123.08 93.8351 123.836 93.8351 125.096C93.8351 126.272 94.7171 127.168 96.2291 127.168C97.1251 127.168 97.8531 126.846 98.3431 126.328V127H100.079V122.884C100.079 120.91 98.8751 119.916 97.1111 119.916ZM96.7331 125.782C96.1451 125.782 95.7391 125.502 95.7391 125.026C95.7391 124.564 96.0891 124.326 96.7051 124.326H98.1891V124.41C98.1891 125.222 97.5311 125.782 96.7331 125.782ZM105.454 125.474C104.586 125.474 104.166 125.194 104.166 124.396V121.666H106.126V120.07H104.166V118.32H102.276V120.07H101.184V121.666H102.276V124.564C102.276 126.342 103.34 127.168 105.048 127.168C105.538 127.168 105.958 127.098 106.35 127V125.418C105.986 125.446 105.678 125.474 105.454 125.474ZM110.903 119.916C108.831 119.916 107.193 121.484 107.193 123.528C107.193 125.586 108.831 127.154 110.889 127.154C112.947 127.154 114.627 125.586 114.627 123.528C114.627 121.484 112.947 119.916 110.903 119.916ZM110.903 121.638C111.925 121.638 112.695 122.45 112.695 123.542C112.695 124.62 111.925 125.418 110.903 125.418C109.853 125.418 109.111 124.634 109.111 123.542C109.111 122.45 109.853 121.638 110.903 121.638ZM119.743 119.986C118.987 119.986 118.301 120.308 117.839 120.91V120.07H116.103V127H117.993V123.542C117.993 122.296 118.763 121.736 119.855 121.736H120.359V120.07C120.177 120.014 119.995 119.986 119.743 119.986ZM123.883 119.902C122.413 119.902 121.335 120.658 121.335 121.988C121.335 123.08 122.049 123.626 123.225 124.102L123.967 124.41C124.387 124.592 124.681 124.718 124.681 125.04C124.681 125.432 124.275 125.614 123.799 125.614C123.057 125.614 122.413 125.25 121.853 124.676L120.901 125.824C121.517 126.636 122.539 127.168 123.771 127.168C125.283 127.168 126.473 126.384 126.473 124.956C126.473 123.878 125.773 123.346 124.527 122.842L123.855 122.562C123.351 122.366 123.127 122.226 123.127 121.946C123.127 121.61 123.421 121.456 123.869 121.456C124.429 121.456 124.975 121.694 125.423 122.114L126.375 120.952C125.745 120.252 124.891 119.902 123.883 119.902ZM130.215 117.76H128.059L127.989 121.652H129.431L130.215 117.76ZM141.293 127H143.323L139.207 117.592H138.577L134.447 127H136.477L136.995 125.796H140.775L141.293 127ZM140.103 124.242H137.667L138.885 121.134L140.103 124.242ZM147.64 119.916C145.568 119.916 143.93 121.484 143.93 123.528C143.93 125.586 145.568 127.168 147.64 127.168C149.012 127.168 150.076 126.482 150.65 125.446L149.334 124.438C148.928 125.012 148.424 125.432 147.668 125.432C146.59 125.432 145.848 124.62 145.848 123.528C145.848 122.45 146.59 121.638 147.668 121.638C148.438 121.638 148.942 122.058 149.334 122.646L150.65 121.624C150.076 120.588 149.026 119.916 147.64 119.916ZM154.888 119.916C153.67 119.916 152.676 120.378 151.864 121.344L152.844 122.506C153.418 121.904 153.936 121.554 154.678 121.554C155.532 121.554 155.966 122.016 155.966 122.772V123.08H154.23C152.634 123.08 151.612 123.836 151.612 125.096C151.612 126.272 152.494 127.168 154.006 127.168C154.902 127.168 155.63 126.846 156.12 126.328V127H157.856V122.884C157.856 120.91 156.652 119.916 154.888 119.916ZM154.51 125.782C153.922 125.782 153.516 125.502 153.516 125.026C153.516 124.564 153.866 124.326 154.482 124.326H155.966V124.41C155.966 125.222 155.308 125.782 154.51 125.782ZM164.715 116.5V120.742C164.239 120.21 163.511 119.916 162.643 119.916C160.683 119.916 159.283 121.456 159.283 123.542C159.283 125.628 160.683 127.168 162.643 127.168C163.609 127.168 164.393 126.79 164.869 126.132V127H166.605V116.5H164.715ZM162.993 125.446C161.999 125.446 161.201 124.704 161.201 123.528C161.201 122.352 162.013 121.624 162.993 121.624C163.861 121.624 164.743 122.226 164.743 123.542C164.743 124.872 163.861 125.446 162.993 125.446ZM174.976 123.136C174.976 121.344 173.66 119.916 171.714 119.916C169.67 119.916 168.088 121.498 168.088 123.542C168.088 125.586 169.684 127.168 171.882 127.168C172.946 127.168 173.87 126.79 174.654 126.132L173.87 124.844C173.31 125.278 172.694 125.544 171.938 125.544C170.944 125.544 170.216 125.054 169.978 124.172H174.85C174.906 123.934 174.976 123.528 174.976 123.136ZM171.644 121.442C172.442 121.442 173.128 121.96 173.142 122.842H169.978C170.202 121.974 170.846 121.442 171.644 121.442ZM184.515 119.916C183.549 119.916 182.723 120.308 182.205 120.91C181.785 120.28 181.085 119.916 180.147 119.916C179.321 119.916 178.649 120.21 178.187 120.686V120.07H176.451V127H178.341V122.968C178.341 122.142 178.859 121.624 179.615 121.624C180.357 121.624 180.847 122.142 180.847 122.968V127H182.737V122.926C182.737 122.156 183.255 121.624 184.011 121.624C184.753 121.624 185.243 122.142 185.243 122.968V127H187.133V122.702C187.133 121.036 186.167 119.916 184.515 119.916ZM193.665 120.07L191.859 124.62L190.165 120.07H188.163L190.823 126.594L190.613 127.056C190.263 127.84 189.773 127.994 189.171 127.994C188.947 127.994 188.681 127.966 188.359 127.938V129.52C188.723 129.618 189.185 129.688 189.577 129.688C190.879 129.688 191.705 129.03 192.335 127.602L195.653 120.07H193.665Z" fill="white"/>
</svg>
